<svg xmlns="http://www.w3.org/2000/svg" width="200" height="200" viewBox="0 0 400 400">
  <defs>
    <style>
      .cls-1 {
        fill: #eaeaea;
        fill-rule: evenodd;
      }
    </style>
  </defs>
  <path id="Color_Fill_1" data-name="Color Fill 1" class="cls-1" d="M103.5,65.485c55.149,4.605,48.968,53.733,108.072,55.186,41.74-22.128,60.885-75.478,117.27-39.09,16.913,49.375-8.362,60.579-34.492,89.676-20.462,22.788-50.93,72.361-85.078,78.18C179.12,254.575,69.619,144.787,64.407,122.97c-5.629-23.56,8.3-37.26,16.1-48.288Zm229.94,117.269c7.584,7.986,4.595,30.809,4.6,45.989,0.016,59.569,4.666,105.918-55.186,105.772C188.94,292.674,314.739,219.134,333.437,182.754Zm-269.03,2.3c21.313,9.471,113.279,93.5,82.779,128.767-14.294,33.162-67.291,20.735-78.18-6.9C55.5,282.254,63.893,218.976,64.407,185.054Z"/>
</svg>
